<?xml version="1.0" encoding="UTF-8"?>
<svg id="Capa_2" data-name="Capa 2" xmlns="http://www.w3.org/2000/svg" viewBox="0 0 359.94 418.24">
  <g id="NOMBRES">
    <path d="M201.78,240.04c-9.21-8.27-16.1,10.44-19.3,17.57-18.67,41.61-30.69,86.73-52.72,126.93-4.95,9.02-18.24,32.38-28.76,33.54-26.5,2.92-19.82-38.41-17.04-54.17,7.6-43.14,27.49-76.35,39.5-116.2,1.84-6.1,7.33-20.96,2.04-25.43-4.36-3.69-26.84-3.28-34.09-4.25-20.66-2.76-70.7-11.88-84.5-26.9-13.43-14.62-6.17-31.3,11.97-36,29.44-7.61,70.51,5.99,101.83-3.59,46.83-14.32,36.7-60.64,45.93-99,3.51-14.6,13.29-40.82,26.06-49.4,21.78-14.62,19.68,25.52,19.07,37.03-1.89,36.1-13.12,76.42-9.56,112.58.46,4.71,2.35,14.11,7.94,14.68,4.57.47,25.72-13.02,31.55-15.89,23.74-11.68,61.2-25.02,87.74-21.8,18.39,2.24,41.98,19.29,24.16,37.86-17.1,17.82-79.67,27.86-104.64,36.71-3.26,1.16-14.18,4.93-14.49,8.35-.71,7.94,14.95,18.1,19.86,23.31,21.16,22.44,75.11,98.4,81.67,126.73,8.41,36.29-23.06,19.67-39.98,10.03-48.01-27.36-58.22-68.78-82.4-114.03-2.41-4.51-8.48-15.64-11.86-18.68Z"/>
  </g>
</svg>