<?xml version="1.0" encoding="UTF-8"?>
<svg id="Capa_2" data-name="Capa 2" xmlns="http://www.w3.org/2000/svg" viewBox="0 0 1108.08 334.89">
  <g id="Capa_1-2" data-name="Capa 1">
    <path d="M426.62,92.04c.71.67,1.52,1.25,2.35,1.79,6.13,4.05,11.22,7.86,14.96,14.36,3.25,5.64,4.87,12.05,5.19,18.52.67,13.67-3.89,27.31-9.87,39.43-2.56,5.19-5.47,10.21-8.69,15.01-4.78,7.14-10.79,13.38-15.79,20.36-4.58,6.39-10.48,15.5-8.56,23.83.23.98.9,2.1,1.9,1.99.31-.03.59-.18.86-.33,8.17-4.58,13.18-12.33,18.14-20,20.97-32.42,36.73-64.78,45.47-102.61,3.61-15.63,7.51-50.09,18.38-61.3,7.82-8.07,22.13-6.04,21.49,6.45-.5,9.82-16.14,32.13,7.87,26.66,18.01-4.1,43.73-22.47,63.14-17.3s11.88,25.18,6.15,38.48c-14.28,33.12-42.8,57.85-55.14,90.68-2.31,6.13-8.53,27.97,5.65,19.18,6.21-3.85,19.79-23.81,24.12-30.75,22.76-36.53,41.54-76.87,63.45-113.95,6.7-11.33,21.06-34.82,33.21-39.71,9.81-3.95,18.87-1.26,12.91,10.66-3.59,7.19-20.64,23.3-2.1,23.46,9.11.08,18.12-1.49,27.18-2.2,5.2-.41,20-2.78,22.98,3.44,1.01,2.1.14,4.59-.86,6.69-8.61,18.16-24.94,32.35-35.63,49.33-8.64,13.73-16.04,28.36-22.77,43.11-3.68,8.06-7.14,16.24-9.98,24.63-2.23,6.58-5.92,16.02-4.46,23.08.39,1.91,1.72,3.75,3.62,4.17,7.75,1.68,13.28-16.05,15.6-20.99,4.36-9.29,8.51-18.7,13.37-27.75,10.99-20.48,25.37-38.82,39.63-57.08,6.64-8.51,14.55-16.95,19.23-26.72,4.59-9.6,6.25-19.94,5.45-30.53-.64-8.53-5.34-18.31-1.62-26.45,6.19-13.55,32.28-18.44,41.35-5.01,12.2,18.07-13.14,40.45-22.29,54.13-9.42,14.09-14.95,39.59-17.96,56.46-1.65,9.26-4.08,23.07-2.48,32.1.4,2.23,2.03,2.2,3.95,1.71,4.15-1.07,16.73-21.65,20.25-26.38,11.55-15.54,45.45-63.06,60.98-69.81,11.48-4.99,14.66-1.84,16.29,9.55.96,6.72.6,14.25,1.59,20.96.22,1.49.8,5.68,2.55,5.79,8.69.54,14.6-21.1,26.29-18.85,5.61,1.08,5.9,17.35,15.42,13.12,9.52-7.79,22.42-29.24,35.16-31.03,14.54-2.04,14.3,27.03,21.41,30.1,4.42,1.91,10.44-1.71,14.04-4.37,9.69-7.14,16.53-18.15,28.1-23.77,37.43-18.16,48.22,16.14,49.41,46.34.51,13.05-5.05,46.9.57,56.56,4.94,8.5,17.2-1.7,21.96-6.16,13.47-12.62,25.72-28.46,38.83-41.6,12.5-8.03,9.62,7.71,6.83,15.1-9.57,25.38-36.38,44.25-55.46,61.81-7.1,6.53-20.57,23.4-28.05,26.82-5.79,2.65-11.38.83-13.96-5.09-3.79-8.69,1.19-28.06-2.3-32.28-2.07-2.51-8.64,3.52-10.56,5.29-11.36,10.5-27.97,34.97-44.64,34.88-13.76-.08-21.63-12.9-35.39-2.15-9.24,7.21-23.72,28.61-37.94,17.61-12.45-9.63-5.36-40.43-.6-53.14,6.12-16.36,26.1-45.98,24.54-62.49-1.34-14.2-14.26-7.18-19.49.64-8.74,13.08-9.96,46.81-25.56,52.62-5.06,1.88-10.8,1.41-13.13-4.11-5.21-12.34,6.54-24.68,4.71-37.41-.12-.87-.31-1.77-.89-2.44-1.98-2.27-5.58,1.54-6.86,2.93-3.61,3.94-5.08,9.63-6.45,14.64-6.51,23.72-1.38,56.16-17.56,75.65-6.43,7.74-20,10.99-26.09,1.26-7.46-11.91-1.69-27.15,2.39-39.25,4.07-12.07,9.04-23.82,13.49-35.75,3.8-10.18,8.56-20.86,9.66-31.99.57-5.71-1.94-4.46-5.78-2.07-2.51,1.56-5.15,3.42-7.23,5.54-15.69,15.98-32.04,43.03-43.34,62.65-7.38,12.81-19.59,41.91-30.33,50.1-6.7,5.11-14.62,4.11-15.95-5.06-1.53-10.56.38-21.14,2.34-31.5,1.34-7.05,4.06-14.46,4.08-21.9,0-2.18.22-9.09-2.82-7.6-1.92.94-2.38,5.36-3.06,7.14-1.66,4.37-3.34,8.74-5.09,13.08-3.45,8.53-7.18,16.96-11.67,25-8.9,15.93-21.09,30.11-37.81,38.06-28.52,13.56-62.56,3.72-56.57-33.27,6.34-39.19,33.51-76.93,51.16-111.21,1.36-2.64,7.79-15.71,6.54-17.71-11.9-3.26-22.17,7.19-28.79,15.75-21.18,27.45-36.68,62.43-52.93,92.9-10.72,20.11-33.63,47.23-58.41,48.35-12.6.57-25.21-12.01-25.22-24.43-.02-22.01,17.4-53.19,29.51-71.27,10.25-15.31,26.78-33.33,33.07-50.37,1.08-2.94,3.2-7.97-1.42-8.63-5.52-.78-13.18,4.11-17.95,6.31-6.74,3.11-14.99,8.88-22.39,9.87-2.26.3-4.16-.36-5.88-1.78-1.29-1.07-2.62-5.05-4.63-4.71-2.77,1.93-3.99,5.29-5.34,8.23-7.81,16.98-12.03,37.17-18.83,54.84-18.44,47.91-47.67,99.27-103.73,106.74-21.21,2.83-41.19-5.52-61.97,1.17-26.22,8.45-53.52,34.32-82.13,28.7-15.48-3.04-28.19-14.23-41.91-21.23-7.61-3.88-10.89-5.95-18.43-.36-10.3,7.64-25.4,30.68-40.93,20.63-12.38-8-16-30.75-20.37-43.53-1.94-5.68-4.94,3.32-5.79,5.42-8.09,20.06-8.32,35.13-24.61,52.06-19.57,20.35-69.74,25.73-77.46-8.25-4.37-19.25,5.9-43.08,10.42-61.8,7.64-31.63,11.95-68.17,3.14-99.84C12.22,131.51-1.38,106.74.11,89.73c2.92-33.1,43.36-46.1,59.28-14.95,14.26,27.91,11.75,60.32,3.3,89.56-6.51,22.5-30.38,72.3-15.56,93.34,15.84,22.48,35.37-7.85,43.3-21.25,11.7-19.77,19.53-43.75,30.84-62.37,4.91-8.09,13.77-17.31,21.53-6.03,8.29,12.05,2.06,48.61,1.64,63.77-.5,17.96,3.8,30.13,18.33,10.81,10.21-13.58,14.6-32.28,15.52-49.13.87-15.87-7.46-59.38,21.06-54.94,22.96,3.57,9.63,40.12,6.96,54.39-2.02,10.81-8.36,33.54,6.67,37.21,8.99,2.19,17.72-9.88,20.73-17.33,10.78-26.66,11.86-57.4,11.77-85.79-.05-16.66-.6-33.03-3.45-49.48-2.3-13.29-5.04-26.65-5.19-40.19-.12-11.55,1.79-24.26,10.54-32.62,8.31-7.94,19.89-5.67,24.45,4.93,7.47,17.35-.28,43.84-1.86,62.76-2.43,29.01-4.39,67.44-2.29,96.24,2.2,30.13,14.27-3.17,19.71-10.41,14.39-19.16,28.16-2.21,46.09-4.27,15.73-1.81,34.28-36.06,45.46-47.75,8.08-8.45,14.48-9.94,23.25-15.83,21.68-14.58,19.2-49.89,37.4-61.07,6.98-4.29,15.88-4.7,13.61,6.1-1.6,7.6-12.77,19.33-17.43,26.17-4.42,6.49-16.52,21.36-10.02,29.51.27.33.56.64.87.93ZM991.53,112.02c-1.13-.49-5.73,4.77-6.43,5.79-5.37,7.83-10.15,16.11-14.74,24.41-3.62,6.55-7.92,12.87-10.3,20.02-.78,2.35-2.44,6.12-1.93,8.64.21,1.02,1.21,1.96,2.22,1.7.46-.12.82-.46,1.16-.8,5.74-5.87,9.53-15.22,13.43-22.37,6.18-11.35,12.74-22.98,16.57-35.38.39-1.27.35-1.86.03-2ZM408.05,142.84c-3.26.91-15.07,23.48-17.96,27.92-3.61,5.56-15.07,18.42-14.96,24.21.11,5.67,3.09,4.08,6.33,1.74,9.83-7.1,25.7-35.35,28.7-47.22.69-2.74,2.54-7.94-2.11-6.65ZM321.76,189.38c-.56-.47-1.62.03-2.25.59-13.67,12.33-21.74,29.39-33.84,43.08-3.53,4-7.39,8.19-8.25,13.46-.1.64-.15,1.34.22,1.87,2.14,3.03,10.74-4.55,12.14-6.01,3.5-3.65,6.2-7.94,9.27-11.93,5.98-7.77,11.66-15.96,16.39-24.56,2.55-4.64,5.97-9.98,6.59-15.32.04-.32.06-.67-.1-.96-.05-.09-.11-.16-.18-.22Z"/>
  </g>
</svg>