<?xml version="1.0" encoding="UTF-8"?>
<svg id="Capa_2" data-name="Capa 2" xmlns="http://www.w3.org/2000/svg" viewBox="0 0 81.79 75.59">
  <defs>
    <style>
      .cls-1 {
        fill: #ff00ce;
      }
    </style>
  </defs>
  <g id="NOMBRES">
    <g>
      <path class="cls-1" d="M5.15,34.59s-.03-.07-.04-.1c-.95-2.19-1.95-3.97-2.95-4.17-.65-.13-1.34.46-1.77,2.15-.53,2.06-.45,5.15-.08,7.8,1.69,13.05,8.45,22.71,17.02,28.39,8.63,5.79,19.01,7.74,28.64,6.65,7.15-.8,13.93-3.23,19.84-6.96,11.08-6.52,20.09-20.62,14.05-36.57,0-.01,0-.02-.01-.04-.78-1.96-3.68-1.84-4.02-.11-.26,1.24-.28,2.56-.3,3.8-.04,12.71-4.62,23.8-14.34,29.94-8.58,5.41-20.03,6.06-29.84,2.87-4.85-1.54-9.47-4.11-12.99-7.85-4.73-5.18-7.31-11.31-10.34-18.16-1.01-2.35-1.86-5.24-2.86-7.62Z"/>
      <path class="cls-1" d="M20.97,31.14c.48,3.27,1.37,6.69,3.91,9.54,1.73,1.93,6.51,1.28,6.86-.92.65-4.13.06-8.57.08-12.44.04-6.33-.22-12.66-.75-18.98-.21-2.41-.95-7.78-6.2-8.3-4.96-.49-5.62,3.49-5.36,5.6,1.05,8.47.2,17.01,1.46,25.5Z"/>
      <path class="cls-1" d="M59.33,35.11c.2,3.28.02,6.77-1.9,9.88-1.31,2.11-6.17,2.02-6.97-.11-1.49-4-1.83-8.46-2.65-12.28-1.34-6.25-2.4-12.53-3.17-18.83-.3-2.41-.67-7.8,4.41-8.92,4.8-1.06,6.27,2.79,6.45,4.91.71,8.49,3.32,16.83,3.82,25.36Z"/>
    </g>
  </g>
</svg>