<?xml version="1.0" encoding="UTF-8"?>
<svg id="Capa_2" data-name="Capa 2" xmlns="http://www.w3.org/2000/svg" viewBox="0 0 841.72 549.84">
  <g id="Capa_1-2" data-name="Capa 1">
    <path d="M698.78,155.04c21.02,9.16,37.4,28.66,38.6,53.01,1.11,22.45-6.39,44.85-16.21,64.73-4.21,8.52-8.99,16.76-14.27,24.65-7.85,11.72-17.72,21.97-25.93,33.43-7.52,10.49-17.21,25.45-14.06,39.13.37,1.61,1.47,3.44,3.11,3.27.51-.05.97-.3,1.41-.55,13.42-7.52,21.63-20.25,29.78-32.84,34.43-53.22,60.31-106.37,74.66-168.48,4.68-20.26,7.32-40.93,12.59-61.07,3.22-12.32,6.48-25.83,14.61-35.98,7.54-9.41,24.98-17.16,34.47-6.22,9.78,11.27-.32,39.56-2.82,52.36-4.11,21.02-9.1,41.86-14.36,62.61-8.14,32.13-19.05,63.5-30.95,94.41-30.27,78.67-78.27,162.99-170.32,175.26-34.82,4.64-67.63-9.07-101.75,1.92-43.05,13.87-87.88,56.36-134.85,47.12-25.41-4.99-46.28-23.37-68.82-34.85-12.5-6.37-17.87-9.77-30.26-.59-16.91,12.54-41.71,50.37-67.21,33.88-20.32-13.14-26.27-50.49-33.44-71.46-3.19-9.33-8.12,5.46-9.5,8.89-13.29,32.93-13.66,57.68-40.4,85.48-32.14,33.41-114.5,42.25-127.18-13.55-7.18-31.61,9.68-70.73,17.11-101.46,12.55-51.93,19.63-111.93,5.15-163.93C20.06,215.92-2.27,175.25.19,147.33c4.79-54.34,71.2-75.68,97.33-24.55,23.41,45.82,19.3,99.04,5.42,147.04-10.69,36.95-49.88,118.71-25.55,153.25,26,36.92,58.08-12.89,71.1-34.88,19.22-32.47,32.07-71.83,50.63-102.41,8.06-13.28,22.61-28.42,35.34-9.9,13.61,19.78,3.38,79.82,2.69,104.71-.82,29.49,6.25,49.47,30.1,17.75,16.77-22.3,23.97-53,25.48-80.66,1.42-26.05-12.25-97.49,34.57-90.2,37.69,5.87,15.82,65.87,11.43,89.3-3.32,17.74-13.73,55.07,10.95,61.09,14.76,3.6,29.09-16.23,34.04-28.45,17.7-43.77,19.47-94.24,19.33-140.85-.09-27.36-.98-54.23-5.66-81.23-3.78-21.82-8.28-43.76-8.52-65.98-.21-18.97,2.94-39.83,17.3-53.56,13.64-13.03,32.66-9.31,40.15,8.1,12.26,28.49-.46,71.97-3.06,103.05-3.98,47.64-7.21,110.73-3.76,158.01,3.61,49.47,23.44-5.2,32.37-17.1,23.63-31.45,46.23-3.63,75.68-7.02,22.9-2.63,37.43-28.43,49.4-45.31,14.25-20.1,28.39-44.13,52.35-53.81,16.23-6.55,34.11-5.39,49.5,1.32ZM669.96,234.52c-5.35,1.49-24.75,38.55-29.48,45.85-5.92,9.12-24.75,30.25-24.57,39.75.18,9.31,5.07,6.7,10.4,2.85,16.15-11.66,42.19-58.04,47.12-77.53,1.14-4.5,4.18-13.04-3.46-10.91ZM528.29,310.93c-.92-.77-2.66.05-3.69.97-22.44,20.24-35.7,48.25-55.56,70.73-5.8,6.57-12.14,13.44-13.55,22.09-.17,1.04-.24,2.21.37,3.07,3.51,4.98,17.63-7.48,19.94-9.88,5.75-5.99,10.18-13.03,15.22-19.59,9.81-12.76,19.14-26.2,26.92-40.32,4.19-7.62,9.8-16.39,10.83-25.15.06-.53.1-1.1-.17-1.57-.09-.15-.19-.27-.3-.37Z"/>
  </g>
</svg>